<?xml version="1.0" encoding="UTF-8"?>
<svg fill="none" viewBox="0 0 512 512" xmlns="http://www.w3.org/2000/svg">
<circle cx="256" cy="256" r="256" fill="url(#a)"/>
<path d="m344.66 237.55c-25.691 25.691-51.35 19.817-70.844 0.323-19.495-19.494-25.368-45.154 0.323-70.845 25.691-25.69 73.224-41.691 92.718-22.197 19.495 19.494 3.513 67.009-22.197 92.719z" fill="#E6BEC9"/>
<path d="m273.93 345.19c-25.691-25.691-19.817-51.35-0.323-70.844s45.153-25.368 70.844 0.323 41.692 73.224 22.198 92.719c-19.495 19.494-67.009 3.512-92.719-22.198z" fill="#E6BEC9"/>
<path d="m167.02 274.13c25.69-25.691 51.35-19.817 70.844-0.323s25.368 45.153-0.323 70.844-73.225 41.692-92.719 22.198c-19.494-19.495-3.512-67.009 22.198-92.719z" fill="#E9C2C5"/>
<path d="m237.33 167.55c25.691 25.691 19.817 51.35 0.323 70.844-19.494 19.495-45.153 25.368-70.844-0.323s-41.692-73.224-22.198-92.718c19.495-19.495 67.009-3.513 92.719 22.197z" fill="#E9C2C5"/>
<path d="m305.65 180.26c0 36.332-22.297 50.323-49.866 50.323s-49.866-13.991-49.866-50.323c0-36.333 22.297-81.258 49.866-81.258s49.866 44.899 49.866 81.258z" fill="#fff"/>
<path d="m331.74 306.39c-36.332 0-50.323-22.298-50.323-49.867s13.991-49.866 50.323-49.866c36.333 0 81.258 22.297 81.258 49.866s-44.899 49.867-81.258 49.867z" fill="#fff"/>
<path d="m205.91 331.74c0-36.332 22.297-50.323 49.866-50.323s49.867 13.991 49.867 50.323c0 36.333-22.298 81.258-49.867 81.258s-49.866-44.899-49.866-81.258z" fill="#fff"/>
<path d="m180.26 206.66c36.332 0 50.323 22.297 50.323 49.866s-13.991 49.867-50.323 49.867c-36.333 0-81.258-22.298-81.258-49.867s44.899-49.866 81.258-49.866z" fill="#fff"/>
<defs>
<linearGradient id="a" x2="512" y1="256" y2="256" gradientUnits="userSpaceOnUse">
<stop stop-color="#FFB200" offset="0"/>
<stop stop-color="#8701C4" offset="1"/>
</linearGradient>
</defs>
</svg>
