<svg xmlns="http://www.w3.org/2000/svg" width="512" height="512" fill="none"><circle cx="256" cy="256" r="256" fill="url(#a)"/><path fill="#E6BEC9" d="M344.661 237.546c-25.691 25.691-51.35 19.817-70.844.323-19.495-19.494-25.368-45.154.323-70.845s73.224-41.691 92.718-22.197c19.495 19.494 3.513 67.009-22.197 92.719"/><path fill="#E6BEC9" d="M273.927 345.192c-25.691-25.691-19.817-51.35-.323-70.844s45.153-25.368 70.844.323 41.692 73.224 22.198 92.719c-19.495 19.494-67.009 3.512-92.719-22.198"/><path fill="#E9C2C5" d="M167.023 274.134c25.69-25.691 51.35-19.817 70.844-.323s25.368 45.153-.323 70.844-73.225 41.692-92.719 22.198c-19.494-19.495-3.512-67.009 22.198-92.719"/><path fill="#E9C2C5" d="M237.331 167.546c25.691 25.691 19.817 51.35.323 70.844-19.494 19.495-45.153 25.368-70.844-.323s-41.692-73.224-22.198-92.718c19.495-19.495 67.009-3.513 92.719 22.197"/><path fill="#fff" d="M305.646 180.258c0 36.332-22.297 50.323-49.866 50.323s-49.866-13.991-49.866-50.323S228.211 99 255.78 99s49.866 44.899 49.866 81.258"/><path fill="#fff" d="M331.742 306.393c-36.332 0-50.323-22.298-50.323-49.867s13.991-49.866 50.323-49.866S413 228.957 413 256.526s-44.899 49.867-81.258 49.867"/><path fill="#fff" d="M205.912 331.742c0-36.332 22.297-50.323 49.866-50.323s49.867 13.991 49.867 50.323S283.347 413 255.778 413s-49.866-44.899-49.866-81.258"/><path fill="#fff" d="M180.258 206.658c36.332 0 50.323 22.297 50.323 49.866s-13.991 49.867-50.323 49.867S99 284.093 99 256.524s44.899-49.866 81.258-49.866"/><defs><linearGradient id="a" x1="0" x2="512" y1="256" y2="256" gradientUnits="userSpaceOnUse"><stop stop-color="#FFB200"/><stop offset="1" stop-color="#8701C4"/></linearGradient></defs></svg>